<?xml version="1.0" encoding="UTF-8"?>
<svg xmlns="http://www.w3.org/2000/svg" xmlns:xlink="http://www.w3.org/1999/xlink" width="419pt" height="87pt" viewBox="0 0 419 87" version="1.1">
<g id="surface1">
<path style=" stroke:none;fill-rule:nonzero;fill:rgb(100%,79.215688%,11.372549%);fill-opacity:1;" d="M 259.265625 71.738281 C 258.664062 73.574219 257.820312 75.65625 256.734375 77.976562 C 255.6875 80.300781 254.207031 82.304688 252.296875 83.992188 C 250.421875 85.714844 247.929688 86.578125 244.820312 86.578125 C 243.058594 86.578125 241.578125 86.332031 240.378906 85.847656 L 240.324219 80.113281 C 241.375 80.375 242.308594 80.507812 243.132812 80.507812 C 246.132812 80.507812 248.453125 79.589844 250.101562 77.753906 C 251.75 75.953125 253.121094 73.257812 254.207031 69.660156 L 256.679688 61.566406 L 237.570312 1.203125 L 244.371094 1.203125 L 259.546875 51.730469 L 273.988281 1.203125 L 280.679688 1.203125 Z M 209.917969 63.195312 C 202.988281 63.195312 197.742188 60.367188 194.179688 54.710938 L 194.179688 85.398438 L 187.941406 85.398438 L 187.941406 1.203125 L 193.730469 1.203125 L 194.070312 9.464844 C 197.480469 3.210938 202.722656 0.0820312 209.804688 0.0820312 C 215.988281 0.0820312 220.785156 2.253906 224.195312 6.601562 C 227.601562 10.945312 229.363281 18.007812 229.476562 27.789062 L 229.476562 34.476562 C 229.476562 44.292969 227.773438 51.542969 224.363281 56.226562 C 220.953125 60.875 216.136719 63.195312 209.917969 63.195312 Z M 208.289062 6.039062 C 204.464844 6.039062 201.429688 7.050781 199.183594 9.074219 C 196.972656 11.097656 195.304688 13.4375 194.179688 16.097656 L 194.179688 48.132812 C 197.027344 54.277344 201.769531 57.351562 208.402344 57.351562 C 217.992188 57.351562 222.9375 50.175781 223.238281 35.824219 L 223.238281 28.800781 C 223.238281 13.625 218.253906 6.039062 208.289062 6.039062 Z M 208.289062 6.039062 "/>
<path style=" stroke:none;fill-rule:nonzero;fill:rgb(20.392157%,47.843137%,70.588237%);fill-opacity:1;" d="M 412.191406 47.066406 C 412.191406 44.445312 411.105469 42.15625 408.933594 40.210938 C 406.796875 38.261719 403.105469 36.105469 397.859375 33.746094 C 392.617188 31.347656 388.511719 29.007812 385.550781 26.722656 C 382.59375 24.398438 381.054688 21.082031 380.945312 16.773438 L 380.945312 16.265625 C 380.945312 11.695312 382.574219 7.855469 385.832031 4.746094 C 389.09375 1.636719 393.515625 0.0820312 399.097656 0.0820312 C 405.054688 0.0820312 409.699219 1.75 413.035156 5.082031 C 416.40625 8.378906 418.09375 12.632812 418.09375 17.839844 L 411.855469 17.839844 C 411.855469 14.730469 410.75 11.976562 408.539062 9.578125 C 406.328125 7.144531 403.179688 5.925781 399.097656 5.925781 C 394.863281 5.925781 391.808594 6.976562 389.9375 9.074219 C 388.101562 11.171875 387.183594 13.496094 387.183594 16.042969 C 387.183594 18.515625 388.042969 20.539062 389.769531 22.113281 C 391.527344 23.6875 395.050781 25.726562 400.332031 28.238281 C 405.917969 30.675781 410.320312 33.148438 413.542969 35.65625 C 416.800781 38.167969 418.429688 41.839844 418.429688 46.671875 C 418.429688 51.695312 416.707031 55.703125 413.261719 58.699219 C 409.8125 61.660156 405.203125 63.140625 399.433594 63.140625 C 392.878906 63.140625 387.875 61.378906 384.429688 57.859375 C 380.980469 54.335938 379.257812 50.195312 379.257812 45.4375 L 385.496094 45.4375 C 385.722656 50.195312 387.3125 53.359375 390.273438 54.933594 C 393.269531 56.507812 396.324219 57.296875 399.433594 57.296875 C 403.59375 57.296875 406.761719 56.300781 408.933594 54.316406 C 411.105469 52.292969 412.191406 49.875 412.191406 47.066406 Z M 359.082031 62.015625 L 358.96875 54.710938 C 355.597656 60.332031 350.257812 63.140625 342.949219 63.140625 C 337.929688 63.140625 333.863281 61.378906 330.753906 57.859375 C 327.683594 54.335938 326.144531 48.433594 326.144531 40.152344 L 326.144531 1.203125 L 332.382812 1.203125 L 332.382812 40.601562 C 332.421875 46.898438 333.566406 51.226562 335.8125 53.585938 C 338.0625 55.945312 340.703125 57.125 343.738281 57.125 C 348.046875 57.125 351.398438 56.058594 353.796875 53.921875 C 356.195312 51.75 357.882812 48.976562 358.855469 45.605469 L 358.855469 1.203125 L 365.09375 1.203125 L 365.09375 62.015625 Z M 311.421875 6.65625 C 307.785156 6.65625 304.828125 7.875 302.539062 10.308594 C 300.292969 12.746094 298.699219 15.894531 297.761719 19.75 L 297.761719 62.015625 L 291.523438 62.015625 L 291.523438 1.203125 L 297.59375 1.203125 L 297.761719 10.308594 C 300.6875 3.492188 305.332031 0.0820312 311.703125 0.0820312 C 313.238281 0.0820312 314.492188 0.304688 315.46875 0.753906 L 315.296875 7.050781 C 314.101562 6.789062 312.808594 6.65625 311.421875 6.65625 Z M 88.183594 62.015625 C 87.582031 60.144531 87.191406 57.332031 87.003906 53.585938 C 85.429688 56.097656 83.238281 58.324219 80.425781 60.273438 C 77.652344 62.222656 74.261719 63.195312 70.253906 63.195312 C 65.234375 63.195312 61.203125 61.753906 58.171875 58.867188 C 55.136719 55.984375 53.617188 51.695312 53.617188 46 C 53.617188 40.378906 55.546875 35.730469 59.40625 32.058594 C 63.265625 28.386719 69.015625 26.550781 76.660156 26.550781 L 86.945312 26.550781 L 86.945312 18.066406 C 86.945312 9.972656 82.710938 5.925781 74.246094 5.925781 C 70.347656 5.925781 67.164062 7.050781 64.691406 9.296875 C 62.253906 11.546875 61.035156 14.449219 61.035156 18.007812 L 54.796875 17.953125 C 54.796875 13.269531 56.597656 9.128906 60.195312 5.53125 C 63.828125 1.898438 68.605469 0.0820312 74.523438 0.0820312 C 79.996094 0.0820312 84.472656 1.449219 87.957031 4.183594 C 91.441406 6.917969 93.183594 11.582031 93.183594 18.179688 L 93.183594 48.132812 C 93.183594 54.054688 93.710938 58.4375 94.757812 61.285156 L 94.757812 62.015625 Z M 70.984375 57.070312 C 74.957031 57.070312 78.308594 56.058594 81.042969 54.035156 C 83.816406 51.976562 85.785156 49.519531 86.945312 46.671875 L 86.945312 31.835938 L 77.054688 31.835938 C 71.398438 31.910156 67.105469 33.183594 64.183594 35.65625 C 61.296875 38.09375 59.855469 41.371094 59.855469 45.492188 C 59.855469 53.210938 63.566406 57.070312 70.984375 57.070312 Z M 21.976562 63.195312 C 15.042969 63.195312 9.796875 60.367188 6.238281 54.710938 L 6.238281 85.398438 L 0 85.398438 L 0 1.203125 L 5.789062 1.203125 L 6.125 9.464844 C 9.535156 3.210938 14.78125 0.0820312 21.863281 0.0820312 C 28.046875 0.0820312 32.839844 2.253906 36.25 6.601562 C 39.660156 10.945312 41.421875 18.007812 41.535156 27.789062 L 41.535156 34.476562 C 41.535156 44.292969 39.828125 51.542969 36.417969 56.226562 C 33.011719 60.875 28.195312 63.195312 21.976562 63.195312 Z M 20.34375 6.039062 C 16.523438 6.039062 13.488281 7.050781 11.242188 9.074219 C 9.03125 11.097656 7.363281 13.4375 6.238281 16.097656 L 6.238281 48.132812 C 9.085938 54.277344 13.824219 57.351562 20.457031 57.351562 C 30.050781 57.351562 34.996094 50.175781 35.296875 35.824219 L 35.296875 28.800781 C 35.296875 13.625 30.3125 6.039062 20.34375 6.039062 Z M 20.34375 6.039062 "/>
<path style=" stroke:none;fill-rule:nonzero;fill:rgb(0%,0%,0%);fill-opacity:1;" d="M 128.875 62.585938 C 113.792969 60.996094 125.351562 43.507812 132.367188 37.65625 C 141.632812 29.929688 151.332031 36.789062 157.972656 44.304688 C 167.902344 55.546875 158.535156 65.6875 146.167969 62.804688 C 140.535156 61.496094 134.609375 63.191406 128.875 62.585938 Z M 115.210938 45.300781 C 106.871094 42.300781 100.230469 26.964844 108.050781 21.765625 C 117.347656 15.582031 127.691406 34 121.324219 43.570312 C 119.921875 45.675781 116.886719 45.902344 115.210938 45.300781 Z M 163.054688 45.398438 C 153.1875 38.367188 161.925781 18.230469 172.355469 21.109375 C 181.824219 23.726562 176.863281 40.246094 169.523438 44.101562 C 167.554688 45.136719 164.976562 46.765625 163.054688 45.398438 Z M 127.90625 29.683594 C 117.769531 26.722656 118.648438 10.484375 124.777344 3.886719 C 137.035156 -9.320312 145.589844 19.035156 136.746094 27.449219 C 134.367188 29.710938 130.886719 30.554688 127.90625 29.683594 Z M 154.710938 1.46875 C 165.546875 6.050781 163.792969 29.347656 150.601562 29.914062 C 140.683594 30.335938 138.820312 -5.25 154.710938 1.46875 Z M 154.710938 1.46875 "/>
</g>
</svg>
