<?xml version="1.0" encoding="UTF-8"?>
<svg xmlns="http://www.w3.org/2000/svg" xmlns:xlink="http://www.w3.org/1999/xlink" width="393pt" height="82pt" viewBox="0 0 393 82" version="1.1">
<g id="surface1">
<path style=" stroke:none;fill-rule:nonzero;fill:rgb(100%,79.215688%,10.980392%);fill-opacity:1;" d="M 242.976562 67.339844 C 242.414062 69.058594 241.625 71.011719 240.605469 73.183594 C 239.625 75.363281 238.238281 77.242188 236.445312 78.820312 C 234.691406 80.4375 232.355469 81.246094 229.441406 81.246094 C 227.789062 81.246094 226.402344 81.015625 225.277344 80.5625 L 225.226562 75.1875 C 226.210938 75.433594 227.085938 75.554688 227.859375 75.554688 C 230.671875 75.554688 232.84375 74.695312 234.390625 72.976562 C 235.933594 71.289062 237.21875 68.761719 238.238281 65.390625 L 240.554688 57.804688 L 222.644531 1.234375 L 229.019531 1.234375 L 243.242188 48.585938 L 256.777344 1.234375 L 263.046875 1.234375 Z M 196.730469 59.332031 C 190.234375 59.332031 185.320312 56.679688 181.980469 51.378906 L 181.980469 80.140625 L 176.132812 80.140625 L 176.132812 1.234375 L 181.558594 1.234375 L 181.878906 8.976562 C 185.074219 3.117188 189.988281 0.183594 196.625 0.183594 C 202.417969 0.183594 206.914062 2.21875 210.109375 6.292969 C 213.304688 10.363281 214.953125 16.984375 215.058594 26.148438 L 215.058594 32.417969 C 215.058594 41.617188 213.464844 48.410156 210.269531 52.800781 C 207.070312 57.15625 202.558594 59.332031 196.730469 59.332031 Z M 195.203125 5.765625 C 191.621094 5.765625 188.773438 6.714844 186.671875 8.609375 C 184.597656 10.507812 183.035156 12.699219 181.980469 15.191406 L 181.980469 45.214844 C 184.648438 50.972656 189.09375 53.855469 195.308594 53.855469 C 204.296875 53.855469 208.933594 47.128906 209.214844 33.679688 L 209.214844 27.097656 C 209.214844 12.875 204.542969 5.765625 195.203125 5.765625 Z M 195.203125 5.765625 "/>
<path style=" stroke:none;fill-rule:nonzero;fill:rgb(20%,47.058824%,70.19608%);fill-opacity:1;" d="M 386.296875 44.214844 C 386.296875 41.757812 385.277344 39.613281 383.242188 37.792969 C 381.242188 35.964844 377.78125 33.945312 372.863281 31.734375 C 367.953125 29.484375 364.105469 27.292969 361.328125 25.148438 C 358.558594 22.972656 357.117188 19.863281 357.011719 15.824219 L 357.011719 15.351562 C 357.011719 11.066406 358.539062 7.46875 361.59375 4.554688 C 364.648438 1.640625 368.792969 0.183594 374.023438 0.183594 C 379.609375 0.183594 383.960938 1.746094 387.085938 4.871094 C 390.246094 7.957031 391.828125 11.945312 391.828125 16.824219 L 385.980469 16.824219 C 385.980469 13.910156 384.945312 11.332031 382.875 9.082031 C 380.800781 6.800781 377.851562 5.660156 374.023438 5.660156 C 370.058594 5.660156 367.195312 6.644531 365.441406 8.609375 C 363.71875 10.578125 362.859375 12.753906 362.859375 15.140625 C 362.859375 17.457031 363.664062 19.355469 365.28125 20.832031 C 366.929688 22.304688 370.234375 24.21875 375.183594 26.570312 C 380.417969 28.855469 384.542969 31.171875 387.5625 33.523438 C 390.617188 35.875 392.144531 39.316406 392.144531 43.847656 C 392.144531 48.554688 390.527344 52.308594 387.300781 55.117188 C 384.066406 57.894531 379.746094 59.28125 374.339844 59.28125 C 368.195312 59.28125 363.507812 57.628906 360.277344 54.332031 C 357.046875 51.027344 355.433594 47.148438 355.433594 42.6875 L 361.277344 42.6875 C 361.492188 47.148438 362.980469 50.113281 365.753906 51.589844 C 368.5625 53.0625 371.425781 53.804688 374.339844 53.804688 C 378.238281 53.804688 381.207031 52.871094 383.242188 51.011719 C 385.277344 49.113281 386.296875 46.847656 386.296875 44.214844 Z M 336.523438 58.226562 L 336.417969 51.378906 C 333.257812 56.648438 328.253906 59.28125 321.402344 59.28125 C 316.699219 59.28125 312.890625 57.628906 309.976562 54.332031 C 307.097656 51.027344 305.65625 45.496094 305.65625 37.734375 L 305.65625 1.234375 L 311.5 1.234375 L 311.5 38.15625 C 311.539062 44.058594 312.609375 48.113281 314.714844 50.324219 C 316.824219 52.539062 319.300781 53.644531 322.144531 53.644531 C 326.179688 53.644531 329.324219 52.644531 331.570312 50.640625 C 333.816406 48.605469 335.398438 46.007812 336.3125 42.847656 L 336.3125 1.234375 L 342.15625 1.234375 L 342.15625 58.226562 Z M 291.859375 6.34375 C 288.449219 6.34375 285.679688 7.488281 283.53125 9.765625 C 281.429688 12.050781 279.933594 15.003906 279.054688 18.617188 L 279.054688 58.226562 L 273.210938 58.226562 L 273.210938 1.234375 L 278.898438 1.234375 L 279.054688 9.765625 C 281.796875 3.378906 286.148438 0.183594 292.121094 0.183594 C 293.558594 0.183594 294.734375 0.390625 295.648438 0.8125 L 295.488281 6.714844 C 294.367188 6.46875 293.15625 6.34375 291.859375 6.34375 Z M 82.644531 58.226562 C 82.078125 56.472656 81.714844 53.835938 81.539062 50.324219 C 80.0625 52.679688 78.007812 54.765625 75.375 56.59375 C 72.773438 58.421875 69.597656 59.332031 65.839844 59.332031 C 61.136719 59.332031 57.359375 57.980469 54.515625 55.277344 C 51.671875 52.574219 50.25 48.554688 50.25 43.214844 C 50.25 37.949219 52.058594 33.59375 55.675781 30.152344 C 59.292969 26.710938 64.679688 24.988281 71.84375 24.988281 L 81.484375 24.988281 L 81.484375 17.039062 C 81.484375 9.453125 77.515625 5.660156 69.582031 5.660156 C 65.929688 5.660156 62.945312 6.714844 60.628906 8.820312 C 58.34375 10.929688 57.199219 13.648438 57.199219 16.984375 L 51.355469 16.933594 C 51.355469 12.542969 53.042969 8.660156 56.414062 5.289062 C 59.816406 1.886719 64.296875 0.183594 69.839844 0.183594 C 74.96875 0.183594 79.164062 1.464844 82.429688 4.027344 C 85.695312 6.589844 87.328125 10.960938 87.328125 17.144531 L 87.328125 45.214844 C 87.328125 50.765625 87.824219 54.871094 88.804688 57.542969 L 88.804688 58.226562 Z M 66.523438 53.589844 C 70.246094 53.589844 73.390625 52.644531 75.953125 50.746094 C 78.550781 48.816406 80.394531 46.515625 81.484375 43.847656 L 81.484375 29.941406 L 72.214844 29.941406 C 66.914062 30.011719 62.890625 31.207031 60.152344 33.523438 C 57.445312 35.808594 56.09375 38.878906 56.09375 42.742188 C 56.09375 49.972656 59.574219 53.589844 66.523438 53.589844 Z M 20.597656 59.332031 C 14.097656 59.332031 9.179688 56.679688 5.847656 51.378906 L 5.847656 80.140625 L 0 80.140625 L 0 1.234375 L 5.425781 1.234375 L 5.738281 8.976562 C 8.9375 3.117188 13.851562 0.183594 20.488281 0.183594 C 26.285156 0.183594 30.777344 2.21875 33.972656 6.292969 C 37.167969 10.363281 38.820312 16.984375 38.925781 26.148438 L 38.925781 32.417969 C 38.925781 41.617188 37.324219 48.410156 34.128906 52.800781 C 30.9375 57.15625 26.425781 59.332031 20.597656 59.332031 Z M 19.066406 5.765625 C 15.484375 5.765625 12.640625 6.714844 10.535156 8.609375 C 8.464844 10.507812 6.902344 12.699219 5.847656 15.191406 L 5.847656 45.214844 C 8.515625 50.972656 12.957031 53.855469 19.171875 53.855469 C 28.164062 53.855469 32.796875 47.128906 33.078125 33.679688 L 33.078125 27.097656 C 33.078125 12.875 28.40625 5.765625 19.066406 5.765625 Z M 19.066406 5.765625 "/>
<path style=" stroke:none;fill-rule:nonzero;fill:rgb(0%,0%,0%);fill-opacity:1;" d="M 120.777344 58.761719 C 106.644531 57.269531 117.476562 40.882812 124.050781 35.398438 C 132.734375 28.15625 141.824219 34.585938 148.046875 41.628906 C 157.355469 52.164062 148.574219 61.667969 136.984375 58.964844 C 131.707031 57.738281 126.152344 59.328125 120.777344 58.761719 Z M 107.972656 42.5625 C 100.15625 39.75 93.933594 25.378906 101.261719 20.503906 C 109.976562 14.710938 119.667969 31.96875 113.703125 40.941406 C 112.386719 42.914062 109.542969 43.125 107.972656 42.5625 Z M 152.8125 42.652344 C 143.5625 36.0625 151.753906 17.191406 161.527344 19.890625 C 170.402344 22.34375 165.753906 37.824219 158.875 41.4375 C 157.027344 42.40625 154.613281 43.933594 152.8125 42.652344 Z M 119.871094 27.925781 C 110.371094 25.148438 111.195312 9.933594 116.9375 3.75 C 128.425781 -8.628906 136.445312 17.945312 128.15625 25.832031 C 125.925781 27.949219 122.664062 28.742188 119.871094 27.925781 Z M 144.992188 1.484375 C 155.148438 5.777344 153.503906 27.609375 141.140625 28.140625 C 131.84375 28.535156 130.097656 -4.8125 144.992188 1.484375 Z M 144.992188 1.484375 "/>
</g>
</svg>
